# xmcd
#
# Track frame offsets: 
#        150
#        15920
#        39852
#        57785
#        80695
#        101012
#        120200
#        139062
#        159770
#        179460
#        205422
#        225900
#        250522
#        273007
#
# Disc length: 3924 seconds
#
# Revision: 0
# Processed by: cddbd v1.5.2PL0 Copyright (c) Steve Scherf et al.
# Submitted via: ExactAudioCopy v1.0b3
#
DISCID=9b0f520e
DTITLE=Eiffel 65 - Europop
DYEAR=1999
DGENRE=Eurodance
TTITLE0=Blue (Da Ba Dee)
TTITLE1=Too Much Of Heaven
TTITLE2=Dub In Life
TTITLE3=Living In A Bubble
TTITLE4=Move Your Body
TTITLE5=My Console
TTITLE6=Your Clown
TTITLE7=Another Race
TTITLE8=The Edge
TTITLE9=Now Is Forever
TTITLE10=Silicon World
TTITLE11=Europop
TTITLE12=Hyperlink (Deep Down)
TTITLE13=Blue (Da Ba Dee) Extended Mix
EXTD=
EXTT0=
EXTT1=
EXTT2=
EXTT3=
EXTT4=
EXTT5=
EXTT6=
EXTT7=
EXTT8=
EXTT9=
EXTT10=
EXTT11=
EXTT12=
EXTT13=
PLAYORDER=
